<svg id="Layer_1" enable-background="new 0 0 100 100" viewBox="0 0 100 100" xmlns="http://www.w3.org/2000/svg"><path d="m41.5865135 77.0519333c-1.2639923-1.1667557-3.1113663-1.4584503-4.7642784-.7778397-.097229 0-.097229 0-.1944618 0 0 0 0 0 0-.097229.097229-2.3335266-1.7501411-4.3753586-4.0836639-4.5698166-.5833817 0-1.1667633.097229-1.7501431.2916946-.6806107.097229-.4861507-.4861526-.4861507-.4861526.8750706-2.23629-.0972309-4.6670456-2.3335228-5.6393509-1.1667614-.486145-2.5279827-.388916-3.6947441.194458-.4861507.097229-.3889198-.388916-.3889198-.388916 1.1667614-2.0418358.4861507-4.5698166-1.4584522-5.7365837-1.944603-1.0695305-4.2781258-.5833778-5.6393471 1.1667595l-3.4030533 4.1809082c-1.4584522 1.847374-1.1667614 4.569809.5833807 6.0282669 0 0 0 0 .0972309.0972214l.4861507.3889236c1.3612213 1.0695343 3.3058252 1.1667633 4.7642775.2916946.097229-.097229.1944599 0 .2916889.097229v.194458c-.2916889 1.5556793.2916889 3.2085953 1.5556831 4.1809006l.3889198.2916946c1.3612213 1.0695267 3.1113644 1.1667557 4.6670456.486145.0972309-.097229.1944599 0 .2916889.097229v.097229c-.1944599 1.4584503.3889198 2.9169083 1.5556831 3.8892059l.2916889.194458c1.3612213 1.0695343 3.1113663 1.1667557 4.6670475.4861526.097229-.097229.2916908 0 .2916908.097229v.097229c.1944618 1.0695267.7778397 2.041832 1.6529121 2.7224426l.1944618.194458c1.944603 1.4584503 4.6670456 1.1667633 6.1254959-.7778397.097229-.194458.1944618-.2916946.3889236-.4861526l.5833778-1.0695343c1.1667636-1.9445951.8750728-4.2781141-.6806104-5.736572zm39.1837425-10.5980759c-.194458-.2916946-.3889236-.5833817-.5833817-.7778473l-3.1113586-3.7919731-25.0853767-30.530262c-.2916908-.2916889-.6806107-.3889217-1.0695305-.1944599l-12.0565376 6.7088795c-3.8892059 2.1390648-8.4590225 2.5279846-12.6399174.9723015-2.2362919-.7778397-4.0836658-2.6252136-4.9587364-4.8615074-.6806126-2.3335228-.3889217-4.7642765.7778397-6.9033375.2916889-.5833778.0972309-1.2639904-.3889198-1.5556793-.1944618-.097229-.3889198-.097229-.5833817-.1944618h-16.2374311c-1.2639918 0-2.3335235 1.0695305-2.3335235 2.3335247v32.377636c.0000002 1.2639885 1.0695317 2.23629 2.3335235 2.23629h4.9587369l3.5002851-4.2781296c3.1113634-3.7919769 8.7507124-4.2781258 12.5426874-1.1667595 1.3612213 1.1667595 2.4307537 2.7224464 2.9169025 4.4725876 3.0141354.7778435 5.3476562 3.1113586 6.1254997 6.1255035 2.1390648.680603 4.0836678 2.0418243 5.1531982 4.0836563 1.847374.2916946 3.5975151 1.1667633 4.9587326 2.5279846 2.8196754 2.9169083 3.4030571 7.4867172 1.2639923 10.9870071l-.4861488.8750763c2.23629 1.6529083 5.4448853 1.0695267 7.0977974-1.1667633.7778397-1.1667557 1.0695305-2.527977.8750725-3.8892059 0 0 0-.097229 0-.1944504h.097229l.3889198.388916c1.750145 1.750145 4.4725876 2.041832 6.6116486.6806107 1.652916-1.1667557 2.4307556-3.2085953 2.041832-5.1531982v-.097229h.097229l.3889236.3889236c1.7501411 1.750145 4.4725838 2.0418243 6.6116524.680603 1.6529083-1.1667557 2.4307556-3.2085953 2.139061-5.1531982 0-.097229 0-.097229 0-.194458h.097229l.388916.3889236c1.652916 1.6529083 4.1809006 1.944603 6.2227325.7778397 2.6252214-1.264 3.4030535-4.4725877 1.9446031-6.9033433zm14.4872895-41.1283512h-4.375351c-1.847374 0-3.6947479-.2916889-5.3476562-.9723015l-26.4466019-10.1119337c-5.3476562-2.0418329-11.375927-1.1667624-15.8485107 2.2362928l-16.6263524 12.6399193c-.2916889.2916908-.5833817.6806126-.7778397 1.0695305-.6806126 1.5556812 0 3.4030552 1.6529121 4.1808949 3.0141354 1.2639923 6.4171886 1.1667633 9.2368641-.4861488l14.0983696-7.9728737c1.0695305-.5833797 2.4307556-.2916889 3.2085953.5833797l30.8219529 37.4336033c.2916946.2916908.7778397.3889198 1.0695267.0972252l1.2639999-1.0695267c.680603-.4861526 1.4584503-.7778435 2.23629-.7778435h5.7365799c1.2639999 0 2.2362976-.9723015 2.3335266-2.2362976v-32.2803955c.0972214-1.2639942-.9723053-2.3335247-2.2363052-2.3335247z"/></svg>