<svg fill="none" height="24" viewBox="0 0 24 24" width="24" xmlns="http://www.w3.org/2000/svg"><g fill="rgb(0,0,0)"><path d="m5.58673 6.49431c0-2.48214 2.01217-4.49431 4.49427-4.49431 2.4822 0 4.4943 2.01217 4.4943 4.49431s-2.0121 4.49429-4.4943 4.49429c-2.4821 0-4.49427-2.01215-4.49427-4.49429z"/><path clip-rule="evenodd" d="m15.9557 22c2.8085 0 5.0853-2.2768 5.0853-5.0853s-2.2768-5.0853-5.0853-5.0853-5.0853 2.2768-5.0853 5.0853 2.2768 5.0853 5.0853 5.0853zm.7504-7.2292c0-.4143-.3358-.75-.75-.75s-.75.3357-.75.75v.8942c0 .2762-.2238.5-.5.5h-.8943c-.4142 0-.75.3358-.75.75s.3358.75.75.75h.8943c.2762 0 .5.2239.5.5v.8943c0 .4142.3358.75.75.75s.75-.3358.75-.75v-.8943c0-.2761.2239-.5.5-.5h.8943c.4142 0 .75-.3358.75-.75s-.3358-.75-.75-.75h-.8943c-.2761 0-.5-.2238-.5-.5z" fill-rule="evenodd"/><path d="m8.89556 12.2572c.26512 0 .53026-.0005.79539-.0009l.40995-.0006c.4442-.0006.6845.5554.432.921-.73342 1.0619-1.16297 2.3498-1.16297 3.738 0 1.4238.45189 2.7421 1.22007 3.8193.2618.3671.0192.9408-.4317.9408h-5.22156c-1.50741 0-2.7294-1.222-2.7294-2.7294 0-3.6938 2.99442-6.6882 6.68822-6.6882z"/></g></svg>