<svg id="Layer_1" enable-background="new 0 0 512 512" height="512" viewBox="0 0 512 512" width="512" xmlns="http://www.w3.org/2000/svg"><g><path d="m321.829 182.857v-175.543c0-4.04-3.275-7.314-7.314-7.314h-117.029c-4.04 0-7.314 3.275-7.314 7.314v321.829 175.543c0 4.04 3.275 7.314 7.314 7.314h117.029c4.04 0 7.314-3.275 7.314-7.314z"/><path d="m146.286 329.143c0-4.04-3.275-7.314-7.314-7.314h-117.029c-4.04 0-7.314 3.275-7.314 7.314v175.543c0 4.04 3.275 7.314 7.314 7.314h117.029c4.04 0 7.314-3.275 7.314-7.314z"/><path d="m490.057 175.543h-117.028c-4.04 0-7.314 3.275-7.314 7.314v321.829c0 4.04 3.275 7.314 7.314 7.314h117.029c4.04 0 7.314-3.275 7.314-7.314v-321.829c-.001-4.039-3.275-7.314-7.315-7.314z"/></g></svg>