<?xml version="1.0"?>
<svg xmlns="http://www.w3.org/2000/svg" viewBox="0 0 32 32"><g id="Layer_2" data-name="Layer 2"><path d="M22,20a1,1,0,1,1,1-1A1,1,0,0,1,22,20Zm0,2a3,3,0,1,0-3-3A3.009,3.009,0,0,0,22,22ZM20,10a5,5,0,0,0-5,5v2a3.009,3.009,0,0,1-3,3H8a1,1,0,0,0,0,2h4a5,5,0,0,0,5-5V15a3.009,3.009,0,0,1,3-3h4a1,1,0,0,0,0-2ZM7.29,11.71,8.59,13l-1.3,1.29a1.008,1.008,0,0,0,0,1.42,1.014,1.014,0,0,0,1.42,0L10,14.41l1.29,1.3a1.014,1.014,0,0,0,1.42,0,1.008,1.008,0,0,0,0-1.42L11.41,13l1.3-1.29a1,1,0,0,0-1.42-1.42L10,11.59l-1.29-1.3a1,1,0,1,0-1.42,1.42ZM7,4V7A1,1,0,0,0,9,7V4H23V7a1,1,0,0,0,2,0V4h1a3.009,3.009,0,0,1,3,3V23a3.009,3.009,0,0,1-3,3H25v2h1a1,1,0,0,1,0,2H22a1,1,0,0,1,0-2h1V26H8.8v2H10a1,1,0,0,1,0,2H6a1,1,0,0,1,0-2h.8V26H6a3.009,3.009,0,0,1-3-3V7A3.009,3.009,0,0,1,6,4ZM9,3A1,1,0,0,0,7,3V4H9ZM25,3a1,1,0,0,0-2,0V4h2Z"/></g></svg>
