<svg height="512" viewBox="0 0 32 32" width="512" xmlns="http://www.w3.org/2000/svg"><g id="Layer_2" data-name="Layer 2"><rect height="12" rx="2" width="8" x="12" y="18"/><rect height="9" rx="2" width="8" x="2" y="21"/><rect height="17" rx="2" width="8" x="22" y="13"/><path d="m6 17a1.007 1.007 0 0 0 .247-.031 42.138 42.138 0 0 0 10.243-4.1 42.055 42.055 0 0 0 9.51-7.346v2.477a1 1 0 0 0 2 0v-5a1 1 0 0 0 -1-1h-5a1 1 0 0 0 0 2h2.676a40.026 40.026 0 0 1 -9.166 7.128 40.115 40.115 0 0 1 -9.757 3.9 1 1 0 0 0 .247 1.972z"/></g></svg>