<svg enable-background="new 0 0 64 64" height="64" viewBox="0 0 64 64" width="64" xmlns="http://www.w3.org/2000/svg"><g id="Layer_2"/><g id="Layer_3"/><g id="Layer_4"><path d="m61.11 22.06c0 3.16-2.21 5.81-5.17 6.49-.011.07-.03.14-.061.21l-8.14 18.45c1.35.59 2.34 1.39 3 2.41.02.02.04.05.06.08.601.96.9 2.11.9 3.43v4.5c0 .56-.44 1-1 1h-37.399c-.56 0-1-.44-1-1v-4.5c0-1.38.33-2.58 1-3.58.01-.01.02-.03.04-.05.66-.97 1.62-1.73 2.91-2.3l-8.13-18.44c-.03-.07-.05-.14-.06-.21-2.96-.68-5.17-3.33-5.17-6.49 0-3.68 3-6.68 6.68-6.68s6.67 3 6.67 6.68c0 1.11-.28 2.17-.76 3.09l4.08 3.79.44-10.93c-2.2-1.08-3.72-3.35-3.72-5.97 0-3.68 3-6.67 6.68-6.67s6.67 2.99 6.67 6.67c0 2.09-.96 3.95-2.46 5.18l4.26 10.58h1.14l4.26-10.58c-1.5-1.23-2.46-3.09-2.46-5.18 0-3.68 2.99-6.67 6.67-6.67s6.68 2.99 6.68 6.67c0 2.62-1.52 4.89-3.72 5.97l.44 10.93 4.09-3.79v-.01c-.49-.92-.771-1.97-.771-3.08 0-3.68 2.99-6.68 6.67-6.68 3.681 0 6.681 3 6.681 6.68z"/></g><g id="Layer_5"/><g id="Layer_6"/><g id="Layer_8"/><g id="Layer_9"/><g id="Layer_10"/><g id="Layer_11"/><g id="Layer_12"/><g id="Layer_13"/><g id="Layer_14"/><g id="Layer_15"/><g id="Layer_16"/><g id="Layer_17"/><g id="Layer_18"/><g id="Layer_19"/><g id="Layer_20"/><g id="Layer_21"/><g id="Layer_22"/><g id="Layer_23"/><g id="Layer_24"/><g id="Layer_25"/></svg>