<svg id="Capa_1" enable-background="new 0 0 497 497" height="512" viewBox="0 0 497 497" width="512" xmlns="http://www.w3.org/2000/svg"><g><g><path d="m340.256 428.398c-15.172-26.867-41.069-45.771-70.808-51.838h-27.701l-70.459 51.838v54.986l13.616 13.616h63.596 105.527v-16.095c0-19.084-5.016-37.003-13.771-52.507z" fill="#676fb2"/><path d="m248.499 374.452c-38.625 0-73.236 21.154-91.755 53.946-8.755 15.504-13.771 33.423-13.771 52.507v16.095h41.931v-16.095c0-10.227 1.23-20.218 3.919-29.594 10.822-37.727 42.056-66.871 80.624-74.752-6.772-1.382-13.777-2.107-20.948-2.107z" fill="#4c5699"/></g><g><path d="m281.38 2.741h-50.314l-140.004 124.697v250.492l190.318 69.07h104.558c33.137 0 60-26.863 60-60v-189.562c0-97.837-71.168-179.04-164.558-194.697z" fill="#c9aaf2"/><path d="m238.12 379.718c-71.386-29.672-121.564-99.783-121.564-182.005 0-98.012 71.297-179.36 164.825-194.972-10.695-1.793-21.677-2.741-32.881-2.741-108.786 0-197.438 88.179-197.438 197.438v187.395 2.167c0 33.137 26.863 60 60 60h170.318v-2.6c0-13.547-3.91-26.442-10.852-37.4-7.574-11.958-18.758-21.608-32.408-27.282z" fill="#b28ae4"/></g><path d="m270.529 407h-1c-15.377 0-26.236 15.065-21.373 29.653l4.981 14.942c3.066 9.199 11.676 15.405 21.373 15.405h21.762c11.046 0 20-8.954 20-20v-25c0-16.569-13.432-30-30-30h-.32c-8.262 0-15.423 6.443-15.423 15z" fill="#ffddcf"/><g><g><path d="m376.797 166.524-128.297-101.03-62.333 35.607v201.121l62.333 27.161c72.681 0 131.945-58.91 131.945-131.944 0-10.654-1.27-21.003-3.648-30.915z" fill="#ffddcf"/><path d="m248.5 65.494-128.294 101.026c-2.38 9.915-3.65 20.265-3.65 30.919 0 73.07 59.297 131.944 131.945 131.944-72.872-72.871-72.872-191.018-.001-263.889z" fill="#ffcbbe"/></g><path d="m376.797 166.524c-13.936-58.068-66.241-101.03-128.297-101.03-62.092 0-114.361 42.99-128.294 101.026 38.086-20.99 81.821-32.943 128.294-32.943 46.46-.001 90.201 11.952 128.297 32.947z" fill="#b28ae4"/></g><g fill="#ff8e9e"><path d="m169.5 217.312c-16.016 0-29 10.297-29 23s12.984 23 29 23 29-10.298 29-23c0-12.703-12.984-23-29-23z"/><path d="m327.5 217.312c-16.016 0-29 10.297-29 23s12.984 23 29 23 29-10.298 29-23c0-12.703-12.984-23-29-23z"/></g><g fill="#313d40"><path d="m186.407 202.188c-4.142 0-7.5 3.358-7.5 7.5v12c0 4.142 3.358 7.5 7.5 7.5s7.5-3.358 7.5-7.5v-12c0-4.142-3.358-7.5-7.5-7.5z"/><path d="m311.407 202.188c-4.142 0-7.5 3.358-7.5 7.5v12c0 4.142 3.358 7.5 7.5 7.5s7.5-3.358 7.5-7.5v-12c0-4.142-3.358-7.5-7.5-7.5z"/><path d="m269.298 215.658c-3.123-2.721-7.86-2.396-10.582.727-2.729 3.132-6.669 4.928-10.81 4.928s-8.081-1.796-10.81-4.928c-2.721-3.123-7.459-3.448-10.582-.727s-3.448 7.458-.727 10.582c5.578 6.402 13.64 10.073 22.118 10.073 8.479 0 16.541-3.671 22.119-10.073 2.723-3.124 2.397-7.861-.726-10.582z"/></g></g></svg>