<?xml version="1.0" encoding="UTF-8"?>
<svg id="Layer_1" xmlns="http://www.w3.org/2000/svg" version="1.1" viewBox="0 0 100 100">
  <!-- Generator: Adobe Illustrator 30.2.1, SVG Export Plug-In . SVG Version: 2.1.1 Build 1)  -->
  <defs>
    <style>
      .st0 {
        fill: #58a45c;
      }

      .st1 {
        fill: #f2bc42;
      }

      .st2 {
        fill: #b5332a;
      }

      .st3 {
        fill: #4e85eb;
      }

      .st4 {
        fill: #d85040;
      }
    </style>
  </defs>
  <g id="Layer_2">
    <g>
      <path class="st2" d="M100,34.6c0-8.51-9.62-13.36-16.36-8.26l-6.37,4.83h0s-27.27,20.66-27.27,20.66l-27.27-20.66-6.36-4.81C9.62,21.26,0,26.11,0,34.62v58.5C0,96.92,3.05,100,6.82,100h15.91v-39l27.27,20.64,27.27-20.64h0s.03-.04.03-.04l-.03.04v39h15.91c3.77,0,6.82-3.08,6.82-6.89v-49.32l-.04.02.04-.03v-9.17Z"/>
      <path class="st3" d="M6.82,100h15.91v-39L0,43.79v49.32C0,96.92,3.05,100,6.82,100Z"/>
      <path class="st0" d="M77.27,100h15.91c3.77,0,6.82-3.08,6.82-6.89v-49.32l-22.73,17.21v39Z"/>
      <path class="st1" d="M77.27,31.17v29.82l22.73-17.21v-9.17c0-8.51-9.62-13.36-16.36-8.26l-6.37,4.83Z"/>
      <path class="st4" d="M22.73,61v-29.83l27.27,20.66,27.27-20.64v29.82l-27.27,20.64-27.27-20.64Z"/>
      <path class="st2" d="M0,34.62v9.17l22.73,17.21v-29.83l-6.36-4.81C9.62,21.26,0,26.11,0,34.62Z"/>
    </g>
  </g>
</svg>